<svg xmlns="http://www.w3.org/2000/svg" width="250" height="250" viewBox="-0.2 25 250 250"><path fill="#1E272B" d="M104.4 174.2c-1.9 0-3.6-.8-4.9-2.1L88 159.8 76.6 172c-2.6 2.7-6.8 2.8-9.5.3-2.7-2.6-2.8-6.8-.3-9.5l16.3-17.4c2.6-2.7 7.3-2.7 9.8 0l11.5 12.2 19.6-20.8c1.3-1.4 3.2-2.3 4.9-2.1 1.9 0 3.6.8 4.9 2.1l24.5 25.9c2.6 2.7 2.4 7-.3 9.5-2.7 2.6-7 2.4-9.5-.3l-19.6-20.7-19.6 20.8c-1.2 1.4-3 2.2-4.9 2.2zM88 130.7c-12.7 0-23.1-10.8-23.1-24.1S75.3 82.5 88 82.5s23.1 10.8 23.1 24.1-10.3 24.1-23.1 24.1zm0-34.8c-5.3 0-9.6 4.8-9.6 10.6 0 5.9 4.3 10.6 9.6 10.6s9.6-4.8 9.6-10.6-4.3-10.6-9.6-10.6z"/><path fill="#1E272B" d="M184.8 97.9c0-.2-.2-1.5-.6-2.5-.3-1-1.5-2.2-1.5-2.2l-48.9-52s-.1 0-.1-.1c-.5-.6-1.2-1-1.9-1.4-.1 0-.2.1-.2.1-.8-.4-1.7-.3-2.7-.3H63.5C50.8 39.5 40 49.8 40 63.1v156.4c0 13.3 10.8 24 23.5 24h73.6c3.7 0 6.7-2.8 6.7-6.5s-3-6.5-6.7-6.5H63.5c-5.2 0-9.5-5.2-9.5-11V63.1c0-5.9 4.2-10.6 9.5-10.6H122v45.4c0 3.7 3.2 6.6 6.9 6.6H171V150c0 3.7 3.3 6.7 7 6.7s7-3 7-6.7V97.9h-.2zM136 62.8l26.3 28.7H136V62.8z"/><path fill="#1E272B" d="M207.3 206.2l-24.5-26.1s-.1 0-.1-.1c-1.2-1.3-2.9-2.1-4.8-2.1s-3.6.8-4.8 2.1c0 0-.1 0-.1.1l-24.5 26.1c-2.6 2.7-2.4 7 .3 9.5 2.7 2.6 6.9 2.4 9.4-.3l12.8-13.7v52.5c0 3.7 3.3 6.7 7 6.7s7-3 7-6.7v-52.5l12.7 13.7c1.3 1.4 3 2.1 4.8 2.1 1.7 0 3.3-.6 4.6-1.8 2.7-2.5 2.8-6.8.2-9.5z"/></svg>